<svg xmlns="http://www.w3.org/2000/svg" width="177.172" height="195.231" viewBox="0 0 177.172 195.231">
  <g id="ICCMT20WC2022_2021" opacity="0.24">
    <g id="Group_1" data-name="Group 1" transform="translate(19.453)">
      <path id="Path_1" data-name="Path 1" d="M72.6,239.3l20.9,12,11.2-7.61V230.4Z" transform="translate(-72.6 -168.664)" fill="#d6ddea"/>
      <path id="Path_2" data-name="Path 2" d="M359.6,91.489a20.6,20.6,0,0,1,4.126-6.7,19.973,19.973,0,0,1,28.028-1.125l13.13-7.02L372.734,61.8,359.979,82.486,358.8,89.935A8.532,8.532,0,0,1,359.6,91.489Z" transform="translate(-282.112 -45.241)" fill="#d6ddea"/>
      <path id="Path_3" data-name="Path 3" d="M302.505,2.2,296.4,6.645l5.252,2.412Zm-3,42.444,1.179-7.449,3.966-24.759-8.467-3.912-3.323,28.725L292.109,9.7l-7.556,5.52L284.017,36.5,282.3,13.826l9.861-7.181L277.8,0l3.8,37.889,3.7-.107C290.662,37.674,296.45,39.336,299.5,44.641Z" transform="translate(-222.816)" fill="#d6ddea"/>
      <path id="Path_4" data-name="Path 4" d="M159.638,35.2,132.2,57.44l14.845,7.235,27.921-1.018Z" transform="translate(-116.23 -25.768)" fill="#d6ddea"/>
      <path id="Path_5" data-name="Path 5" d="M131.933,292.2,109.8,309.242l37.728,2.626,10.879-13.023L131.933,302.6Z" transform="translate(-99.832 -213.904)" fill="#d6ddea"/>
      <path id="Path_6" data-name="Path 6" d="M275.57,313.2l-7.5,1.018L259.6,342.086l53.751-7.556-17.739-20.847-20.043,2.036Z" transform="translate(-209.493 -229.277)" fill="#d6ddea"/>
      <path id="Path_7" data-name="Path 7" d="M406.6,301.155l13.237,14.255,26.581-12.433L434.842,296.6l-.7,1.715Z" transform="translate(-317.104 -217.125)" fill="#d6ddea"/>
      <path id="Path_8" data-name="Path 8" d="M206.479,171.987l.7-1.715,14.255-36.066-16.184,5.413a20.011,20.011,0,0,0-38.264-2.572,11.258,11.258,0,0,0-.8-1.608c-3.055-5.305-8.9-7.02-14.255-6.86l-3.7.107-27.867.965-24.759.857,13.666,20.686,12.379-1.768v30.011l26.527-3.751,7.449-1.072v2.519l20.1-2.036,3.376-.322Z" transform="translate(-89.437 -90.797)" fill="none"/>
      <path id="Path_9" data-name="Path 9" d="M222.1,178.822l11.04-28.028-9.164,3.055a20,20,0,0,1-36.334,12.111l-10.075,3.376v3.215l-8.9,1.233,11.468-15.22c4.823-6.484,1.5-16.184-9.914-15.809L120.6,144.47l8.574,12.969,14.362-2.036v30.064l10.557-1.447V153.956l17.042-2.412c2.465-.322,3.215,1.715,1.983,3.323l-15.166,19.989v8.628l19.561-2.787v2.733ZM203.933,138.2a16.217,16.217,0,1,1-11.308,27.76l18.542-6.163,1.608-4.18-22.187,7.931a8.531,8.531,0,0,1-.7-1.179l24.973-10.45,1.554-4.394-27.653,12.219a10.778,10.778,0,0,1-.375-1.233l20.525-10.932,1.876-4.877L187.91,155.51a16.312,16.312,0,0,1,4.341-12.111A15.633,15.633,0,0,1,203.933,138.2Z" transform="translate(-107.738 -101.169)" fill="#d6ddea"/>
    </g>
    <path id="Path_10" data-name="Path 10" d="M199.534,619.594l3.751-4.555c.911-1.125,1.554-2.036,1.5-3,0-.7-.482-1.286-1.608-1.125a4.318,4.318,0,0,0-2.465,1.34L199.319,610a8.35,8.35,0,0,1,4.287-1.983c2.626-.375,4.234.857,4.234,3.055a7.474,7.474,0,0,1-2.09,4.716l-1.983,2.3v.054l4.126-.59v2.733l-8.36,1.179Zm-9.7,1.393,3.751-4.555c.911-1.126,1.554-2.036,1.5-3-.054-.7-.482-1.286-1.608-1.125a4.32,4.32,0,0,0-2.465,1.339l-1.393-2.251a8.348,8.348,0,0,1,4.287-1.983c2.626-.375,4.234.857,4.18,3.109a7.474,7.474,0,0,1-2.09,4.716l-1.983,2.3v.054l4.126-.59v2.733l-8.36,1.179Zm-3.966-3.912c0-2.2-.643-3.644-1.983-3.43-1.179.161-1.983,1.5-1.983,3.966,0,2.2.643,3.644,1.983,3.43C185.064,620.933,185.868,619.594,185.868,617.075Zm-7.02.965c0-3.966,1.822-6.752,5.038-7.235,3.162-.429,5.038,1.715,5.038,5.841,0,3.966-1.822,6.806-5.038,7.235-3.162.482-5.038-1.715-5.038-5.842Zm-9.7,5.842,3.751-4.555c.911-1.126,1.554-2.036,1.5-3,0-.7-.482-1.286-1.608-1.125a4.316,4.316,0,0,0-2.465,1.34l-1.393-2.251a8.345,8.345,0,0,1,4.287-1.983c2.626-.375,4.234.857,4.234,3.108a7.474,7.474,0,0,1-2.09,4.716l-1.983,2.3v.054l4.126-.59v2.733l-8.36,1.179Zm-9.646-1.554-1.393-4.18h-.054l-1.393,4.555Zm-2.84-7.664,2.894-.375,4.662,12.272-3.108.429-.75-2.2-4.448.589-.8,2.411-3.162.429Zm-9.164,1.286,3.055-.429v12.915l-3.055.429Zm-10.611,1.5,3.055-.428v10.235l5.841-.857v2.733l-8.9,1.286V617.45Zm-6,8.9-1.393-4.18h-.054l-1.393,4.555Zm-2.894-7.664,2.894-.375,4.662,12.272-3.108.429-.75-2.2-4.448.589-.75,2.412-3.162.429Zm-8.9,5.627c0-.965-.59-1.608-1.983-1.447l-1.554.214v3.43l1.5-.215c1.34-.16,2.036-.911,2.036-1.983Zm.429,8.521a10.124,10.124,0,0,0-2.787-3.751l-1.179.161v4.18l-2.948.375V620.88l4.984-.7c3.269-.482,4.555,1.179,4.555,3.591a4.548,4.548,0,0,1-2.3,4.073A13.119,13.119,0,0,1,122.9,632.4Zm-14.9-8.146-3.323.482v-2.733l9.753-1.393v2.733l-3.323.482v10.236l-3.055.429-.054-10.236ZM91.12,635.51l1.286-2.733a5.055,5.055,0,0,0,3.376.8c1.179-.161,1.661-.7,1.661-1.286,0-.75-.59-.911-2.2-1.233-1.929-.375-3.912-.964-3.912-3.537,0-2.519,1.876-4.073,4.448-4.448a6.3,6.3,0,0,1,4.5.8l-1.608,2.679a4.124,4.124,0,0,0-2.84-.8c-.75.107-1.393.482-1.393,1.179,0,.643.482.911,2.036,1.286,2.144.482,4.073.911,4.073,3.537,0,2.84-2.2,4.233-4.823,4.662A7.786,7.786,0,0,1,91.12,635.51Zm-12.058-2.251v-7.717l3-.429v7.556c0,1.608.75,2.626,2.251,2.412,1.286-.161,2.3-1.179,2.3-3.055V624.47l3-.429v7.717a5.71,5.71,0,0,1-5.305,6.109C81.205,638.35,79.062,636.9,79.062,633.259Zm-5.306,1.072-1.393-4.18h-.054l-1.393,4.555Zm-2.894-7.61,2.894-.375,4.662,12.272-3.108.429-.75-2.2-4.448.589-.75,2.412-3.162.429Z" transform="translate(-48.462 -445.049)" fill="#d6ddea"/>
    <g id="Group_3" data-name="Group 3" transform="translate(16.184 107.921)">
      <path id="Path_11" data-name="Path 11" d="M413.2,419.5v4.341l5.52-.75V439.6l5.091-.7v-16.56l5.627-.8V417.2Z" transform="translate(-318.666 -413.331)" fill="#d6ddea"/>
      <path id="Path_12" data-name="Path 12" d="M485.981,428.385l3.269-3.751c2.68-3.108,3.483-5.734,3.483-7.717,0-3.644-2.733-5.681-7.074-5.037a13.287,13.287,0,0,0-5.091,1.876v5.038a9.663,9.663,0,0,1,4.341-2.251c1.929-.268,2.68.75,2.68,1.822.054,1.608-.911,3.108-2.465,4.93l-6.324,7.449.053,3.216,14.523-2.036v-4.448l-7.4,1.018Z" transform="translate(-366.689 -409.349)" fill="#d6ddea"/>
      <path id="Path_13" data-name="Path 13" d="M339.564,439.747c-2.573-.59-3.377-.965-3.377-2.036,0-1.125,1.018-1.769,2.3-1.983a6.769,6.769,0,0,1,4.662,1.233l2.679-4.341a10.526,10.526,0,0,0-7.5-1.233c-4.341.643-7.449,3.162-7.449,7.288,0,4.18,3.376,5.145,6.538,5.734,2.572.536,3.591.8,3.591,1.929,0,.965-.857,1.822-2.733,2.09a8.644,8.644,0,0,1-5.681-1.34l-2.2,4.394a11.179,11.179,0,0,0,7.771,1.179c4.394-.643,8.038-2.84,8.038-7.5C346.424,441.14,343.155,440.5,339.564,439.747Z" transform="translate(-258.053 -423.552)" fill="#d6ddea"/>
      <g id="Group_2" data-name="Group 2" transform="translate(128.242)">
        <path id="Path_14" data-name="Path 14" d="M553.094,404.272h0a7,7,0,0,0-5.627-1.393c-5.2.75-8.467,5.252-8.467,11.844,0,3.644.964,6.484,2.787,8.039a7.165,7.165,0,0,0,5.68,1.393c5.252-.75,8.414-5.145,8.414-11.844C555.828,408.613,554.916,405.826,553.094,404.272Zm-5.627,15.38a2.143,2.143,0,0,1-1.876-.536c-.965-.857-1.5-2.679-1.5-5.2,0-3.966,1.179-6.324,3.376-6.645a2.144,2.144,0,0,1,1.876.536c.964.857,1.5,2.626,1.5,5.2C550.844,417.026,549.665,419.384,547.467,419.652Z" transform="translate(-539 -402.76)" fill="#d6ddea"/>
      </g>
      <path id="Path_15" data-name="Path 15" d="M305.2,446.735l3.483-.536,2.036-8.2-4.609.589Z" transform="translate(-239.605 -428.557)" fill="#d6ddea"/>
      <path id="Path_16" data-name="Path 16" d="M71.386,476.448h-.054l-5.895-10.236-5.038.643v20.9l4.93-.7V475.483h.107l4.341,7.128,3.215-.483,4.287-8.2h.054V485.4l4.984-.7V463.8l-5.038.7Z" transform="translate(-60.4 -447.444)" fill="#d6ddea"/>
      <path id="Path_17" data-name="Path 17" d="M161.13,468.041l9.057-1.286v-4.234l-9.057,1.286v-4.073l9.968-1.34V454l-14.9,2.09v20.9l15.327-2.144v-4.395l-10.4,1.5Z" transform="translate(-130.53 -440.27)" fill="#d6ddea"/>
      <path id="Path_18" data-name="Path 18" d="M239.358,455.812l-.054.053-8.682-11.736-4.823.7V465.78l4.93-.7V452.436h.054l8.628,11.362,4.93-.7V442.2l-4.984.75Z" transform="translate(-181.481 -431.632)" fill="#d6ddea"/>
    </g>
    <g id="Group_4" data-name="Group 4" transform="translate(21.865 101.28)">
      <path id="Path_19" data-name="Path 19" d="M155,388.218c0-4.93,3.055-9.432,7.878-10.129a5.046,5.046,0,0,1,5.252,2.09l-2.626,2.733a2.7,2.7,0,0,0-2.787-1.554c-2.572.375-4.126,3.376-4.126,6.109,0,2.2,1.018,3.269,2.84,3a4.729,4.729,0,0,0,3.162-2.037l2.09,2.358a8.42,8.42,0,0,1-5.466,2.947C157.572,394.328,155,392.559,155,388.218Z" transform="translate(-135.332 -377.976)" fill="#d6ddea"/>
      <path id="Path_20" data-name="Path 20" d="M105.6,395.218c0-4.93,3.055-9.432,7.878-10.128a5.046,5.046,0,0,1,5.252,2.09l-2.626,2.733a2.7,2.7,0,0,0-2.787-1.554c-2.572.375-4.126,3.376-4.126,6.109,0,2.2,1.072,3.269,2.84,3a4.728,4.728,0,0,0,3.162-2.036l2.09,2.358a8.42,8.42,0,0,1-5.466,2.947C108.172,401.328,105.6,399.559,105.6,395.218Z" transform="translate(-99.169 -383.101)" fill="#d6ddea"/>
      <path id="Path_21" data-name="Path 21" d="M83.422,391.336l3.43-.536L85.03,406.181l-3.43.482,1.822-15.38Z" transform="translate(-81.6 -387.364)" fill="#d6ddea"/>
    </g>
    <g id="Group_5" data-name="Group 5" transform="translate(0 132.457)">
      <path id="Path_22" data-name="Path 22" d="M283.145,558.506l9.7-1.393v4.448L278,563.6V542.7l5.145-.7Z" transform="translate(-203.509 -529.227)" fill="#d6ddea"/>
      <path id="Path_23" data-name="Path 23" d="M446.706,525.712c0,3.269,2.144,5.681,5.948,5.145a9.162,9.162,0,0,0,5.359-2.787l2.787,3.645a14.238,14.238,0,0,1-8.36,3.859c-6.324.911-11.04-2.358-11.04-9.111,0-6.163,3.966-11.361,11.093-12.379a9.89,9.89,0,0,1,8.36,2.2l-3.216,4.18a6.039,6.039,0,0,0-5.305-1.608A6.643,6.643,0,0,0,446.706,525.712Z" transform="translate(-323.126 -508.652)" fill="#d6ddea"/>
      <path id="Path_24" data-name="Path 24" d="M536.394,501.5l5.037-.7v12.486c0,5.573-3.215,9.111-8.842,9.914-5.2.75-8.789-1.608-8.789-7.449V503.265l5.038-.7v12.218c0,2.626,1.286,4.234,3.752,3.859,2.2-.322,3.858-1.876,3.858-4.93V501.5Z" transform="translate(-383.446 -499.067)" fill="#d6ddea"/>
      <path id="Path_25" data-name="Path 25" d="M29.9,568l-6.752,21.865-4.5.643-3.644-13.4h0L11.147,591.58l-4.448.589L0,572.18l5.413-.75L9,583.97h.054l3.376-13.505,5.038-.7,3.269,12.54.107-.053,3.591-13.505Z" transform="translate(0 -548.26)" fill="#d6ddea"/>
      <path id="Path_26" data-name="Path 26" d="M610.892,494.457l-8.092,1.125v20.9l4.877-.7v-6.752l2.786-.375c4.823-.7,7.985-3.43,7.985-8.092C618.5,496.386,616.144,493.706,610.892,494.457Zm-.964,9.968-2.251.322v-5.52l2.358-.321c2.251-.322,3.269.7,3.269,2.3C613.3,502.924,612.179,504.1,609.928,504.424Z" transform="translate(-441.278 -494.331)" fill="#d6ddea"/>
      <path id="Path_27" data-name="Path 27" d="M351.4,531.012l-7.4,1.018v20.9l7.449-1.072c6.913-.965,10.986-5.788,10.986-12S358.148,530.1,351.4,531.012Zm-.214,16.559-2.251.322V535.782l2.626-.375c3.269-.482,5.68,1.769,5.68,5.305A6.892,6.892,0,0,1,351.181,547.572Z" transform="translate(-251.824 -521.079)" fill="#d6ddea"/>
      <path id="Path_28" data-name="Path 28" d="M124.585,560.426A12.309,12.309,0,0,0,113.6,572.7c0,6.324,4.5,10.075,10.986,9.164a12.314,12.314,0,0,0,10.986-12.272C135.571,563.213,130.962,559.515,124.585,560.426Zm0,16.935c-3.376.482-5.734-1.929-5.734-5.359a6.929,6.929,0,0,1,5.734-6.967c3.323-.482,5.681,1.876,5.681,5.359A6.875,6.875,0,0,1,124.585,577.361Z" transform="translate(-83.159 -542.615)" fill="#d6ddea"/>
      <path id="Path_29" data-name="Path 29" d="M217.511,562.425a7.144,7.144,0,0,0,3.859-6.592c0-3.965-2.2-6.538-7.61-5.788l-8.36,1.179v20.954l4.877-.7v-6.753l1.929-.268a17.243,17.243,0,0,1,4.609,6.109l5.681-.8A18.661,18.661,0,0,0,217.511,562.425Zm-4.662-2.412-2.519.375v-5.52l2.626-.375c2.251-.322,3.215.7,3.215,2.358S215.046,559.745,212.849,560.012Z" transform="translate(-150.362 -535.021)" fill="#d6ddea"/>
    </g>
  </g>
</svg>
