<svg xmlns="http://www.w3.org/2000/svg" width="40" height="40" viewBox="0 0 40 40">
  <g id="Group_63068" data-name="Group 63068" transform="translate(7872 944)">
    <rect id="Rectangle_11990" data-name="Rectangle 11990" width="40" height="40" transform="translate(-7872 -944)" fill="none"/>
    <g id="eatfit-footer-logo" transform="translate(-7872 -941.281)">
      <path id="Path_35596" data-name="Path 35596" d="M44.795,54.2,42.5,56.593l2.148-1.025,4.1,1.123,4.443-.781-3.809-.146Z" transform="translate(-33.41 -47.471)" fill="#052465"/>
      <path id="Path_35597" data-name="Path 35597" d="M55.478,52.711,57.333,51.1,50.4,52.369Z" transform="translate(-37.434 -45.885)" fill="#052465"/>
      <path id="Path_35598" data-name="Path 35598" d="M54.187,46.855,55.408,45l-3.955.977L47.4,48.711l4.687-1.562Z" transform="translate(-35.907 -42.763)" fill="#052465"/>
      <path id="Path_35599" data-name="Path 35599" d="M33.974,79.041l3.564,3.32,4.15-1.367c-.1,0-3.906.342-3.906.342L32.9,76.6Z" transform="translate(-28.541 -58.934)" fill="#052465"/>
      <path id="Path_35600" data-name="Path 35600" d="M38.279,89.572l-.879-.83.781,1.758,1.514.244L43.8,88.4l-3.857,1.416Z" transform="translate(-30.832 -64.972)" fill="#052465"/>
      <path id="Path_35601" data-name="Path 35601" d="M68.56,55.762l-3.76.146,4.443.781,4.1-1.123,2.148,1.025L73.149,54.2Z" transform="translate(-44.731 -47.471)" fill="#052465"/>
      <path id="Path_35602" data-name="Path 35602" d="M71.533,52.269,64.6,51l1.9,1.611Z" transform="translate(-44.647 -45.834)" fill="#052465"/>
      <path id="Path_35603" data-name="Path 35603" d="M68.671,47.148l4.736,1.562-4.1-2.734L65.4,45l1.221,1.855Z" transform="translate(-45.049 -42.763)" fill="#052465"/>
      <path id="Path_35604" data-name="Path 35604" d="M78.4,80.843l4.15,1.367,3.564-3.32,1.074-2.49-4.883,4.736C82.257,81.185,78.449,80.843,78.4,80.843Z" transform="translate(-51.647 -58.832)" fill="#052465"/>
      <path id="Path_35605" data-name="Path 35605" d="M82.509,89.816,78.7,88.4l4.1,2.344,1.514-.244.781-1.758-.928.83Z" transform="translate(-51.812 -64.972)" fill="#052465"/>
      <path id="Path_35626" data-name="Path 35626" d="M63.836,54.374h0v0a8,8,0,0,0-.79-.586,7.1,7.1,0,0,0-2.862-.977,5.564,5.564,0,0,0-1.283,0,17.346,17.346,0,0,0-1.135-2.734,5.307,5.307,0,0,0-.3-.537l.049-.049A11.088,11.088,0,0,0,59.2,46.66a5.579,5.579,0,0,0-.1-4.443,2.707,2.707,0,0,0-1.826-1.709h0a4.4,4.4,0,0,0-2.023.049,13.97,13.97,0,0,0-3.01,1.123c-.74.293-1.283.586-1.53.635a4.652,4.652,0,0,1-1.234-.049,13.336,13.336,0,0,0-3.01-.537,8.708,8.708,0,0,0-2.369.049,6.834,6.834,0,0,0-2.369-.049,12.568,12.568,0,0,0-3.01.537,4.652,4.652,0,0,1-1.234.049c-.247-.1-.79-.342-1.53-.635a11.776,11.776,0,0,0-3.01-1.123,4.5,4.5,0,0,0-2.023-.049h0A2.876,2.876,0,0,0,29.1,42.216,5.579,5.579,0,0,0,29,46.66a11.088,11.088,0,0,0,1.678,2.832l.049.049c-.1.2-.2.342-.3.537a24.7,24.7,0,0,0-1.135,2.734,5.564,5.564,0,0,0-1.283,0,7.1,7.1,0,0,0-2.862.977,6.261,6.261,0,0,0-.79.537h-.049a12.5,12.5,0,0,0,.049,3.369c.247,1.855.79,4.394.79,4.394l.543-.146a19.839,19.839,0,0,0,.79,1.953,14.327,14.327,0,0,0,2.961,4.59l1.086.049.1,1.367,8.389,1.807c.345.977.642,1.66.642,1.66a3.864,3.864,0,0,0,1.53.928,18.3,18.3,0,0,0,2.961.391h0a17.659,17.659,0,0,0,2.961-.391,3.864,3.864,0,0,0,1.53-.928s.247-.684.642-1.66L57.668,69.9l.1-1.367.938.049a14.327,14.327,0,0,0,2.961-4.59c.592-1.367.79-1.953.79-1.953l.543.146s.543-2.539.79-4.394A12.822,12.822,0,0,0,63.836,54.374ZM47.551,72.684c-.247.439-3.4.879-3.4.879H43.9c-.592-.1-3.01-.488-3.257-.83-.148-.244-.938-2.051-1.579-3.613a4.423,4.423,0,0,0,1.283.2,5.818,5.818,0,0,0,2.912-.537,2.594,2.594,0,0,0,.839-.732,2.594,2.594,0,0,0,.839.732,6.128,6.128,0,0,0,2.912.537,7.132,7.132,0,0,0,1.283-.2C48.489,70.585,47.7,72.44,47.551,72.684Zm15.2-17.675a37.783,37.783,0,0,1-.3,3.955,9.083,9.083,0,0,1-.444,2.051l-2.813.146,1.925,1.172a23.975,23.975,0,0,1-1.53,3.174,11.326,11.326,0,0,1-1.628,2l-1.53.049-.049,1.465-6.662,1.465c.691-1.807,1.48-3.857,1.53-4.1a1.17,1.17,0,0,0-.049-.83L47.946,59.5c.247.244.543.488.839.732L46.268,57.06c0,.049,0,.049.049.1v.1c-.148.879.888,3.076.888,3.076s1.332,2.441,2.221,4.053l-3.8,1.318,4.293-.391c.1.146.148.293.2.342a.942.942,0,0,1,.049.391l-4.589.2,4.491.635v.1s-.148.293-.345.781l-4.244-1.172,3.4,1.562c-.049,0-.148.049-.2.049a4.041,4.041,0,0,1-2.665-.146,3.938,3.938,0,0,1-1.332-1.367l.049-1.074s2.961-1.318,3.109-2.246a.764.764,0,0,0-.79-.928l-2.912.586h0l-2.912-.586a.764.764,0,0,0-.79.928c.148.928,3.109,2.246,3.109,2.246l.049,1.074a4.5,4.5,0,0,1-1.332,1.367,4.847,4.847,0,0,1-2.665.146c-.049,0-.148-.049-.2-.049l3.4-1.562L38.57,67.655c-.2-.488-.345-.781-.345-.781v-.1l4.491-.635-4.589-.2a.942.942,0,0,1,.049-.391,3.774,3.774,0,0,1,.2-.342l4.293.391-3.8-1.318c.888-1.562,2.221-4.053,2.221-4.053s1.086-2.2.888-3.076v-.1c0-.049.049-.1.049-.146h-.1s-1.234,1.9-1.826,2.734l.2-.2L37.04,65.507a1.6,1.6,0,0,0-.049.83c.1.244.839,2.295,1.53,4.1l-6.662-1.465-.049-1.465-1.53-.049a9.292,9.292,0,0,1-1.628-2,23.976,23.976,0,0,1-1.53-3.174l1.925-1.172-2.813-.146a9.083,9.083,0,0,1-.444-2.051,37.782,37.782,0,0,1-.3-3.955h0a4.256,4.256,0,0,1,2.319-1.074,6.687,6.687,0,0,1,2.369-.049,9.53,9.53,0,0,1,.3-1.074,14.992,14.992,0,0,1,1.184-2.783,29.593,29.593,0,0,1,2.319-3.32l-.691-.537L32.55,47a19.416,19.416,0,0,0-1.283,1.709,10.664,10.664,0,0,1-1.53-2.978,5.021,5.021,0,0,1,.3-3.174,2.251,2.251,0,0,1,1.086-1.172,3.475,3.475,0,0,1,1.431,0c.493.2,2.221.781,3.158,1.221a6.839,6.839,0,0,0,2.122.732c.543-.049,1.628-.244,3.306-.537a8.221,8.221,0,0,1,2.961-.049h0a8.272,8.272,0,0,1,2.961.049,30.481,30.481,0,0,0,3.306.537,4.757,4.757,0,0,0,2.122-.732c.938-.391,2.665-1.025,3.158-1.221a3.475,3.475,0,0,1,1.431,0,2.077,2.077,0,0,1,1.086,1.172,4.715,4.715,0,0,1,.247,3.174,11.376,11.376,0,0,1-1.53,2.978A12.87,12.87,0,0,0,55.595,47l-.74-.879-.691.537a38.483,38.483,0,0,1,2.319,3.32,19.453,19.453,0,0,1,1.184,2.783,3.677,3.677,0,0,1,.3,1.074,6.79,6.79,0,0,1,2.369.049,4.581,4.581,0,0,1,2.418,1.123Z" transform="translate(-24.219 -40.419)" fill="#052465"/>
      <path id="Path_35627" data-name="Path 35627" d="M63.853,66.96a4.779,4.779,0,0,0-2.295-4.2,6.814,6.814,0,0,0-3.271-.684s-1.221-.049-2.393,0H45.2c-1.221-.049-2.539,0-2.539,0a6.814,6.814,0,0,0-3.271.684,4.722,4.722,0,0,0-2.295,4.2,6.636,6.636,0,0,0,.635,3.027,5.145,5.145,0,0,0,4.248,2.734,7.189,7.189,0,0,0,7.178-7.178h0V65.4h2.637v.146h0a7.189,7.189,0,0,0,7.178,7.178,5.283,5.283,0,0,0,4.248-2.734A6.637,6.637,0,0,0,63.853,66.96ZM48.912,64.274a2.754,2.754,0,0,0-.537-.977h4.15a2.754,2.754,0,0,0-.537.977Z" transform="translate(-30.598 -51.491)" fill="#ec0677"/>
    </g>
  </g>
</svg>
