<svg xmlns="http://www.w3.org/2000/svg" width="146.067" height="215.079" viewBox="0 0 146.067 215.079">
  <g id="noun-wickets-11926" transform="matrix(0.899, -0.438, 0.438, 0.899, -166.186, 114.159)" opacity="0.4">
    <path id="Path_71818" data-name="Path 71818" d="M325.414,290.687,324.17,113.069c0-3.991,1.669-6.665,3.73-6.665h3.73c2.061,0,3.731,2.676,3.731,6.665l1.243,177.9" transform="translate(-111.483 -83.346)" fill="#d6ddea"/>
    <path id="Path_71819" data-name="Path 71819" d="M428.4,281.8V103.353c0-3.944,2.183-8.155,4.244-8.155h3.73c2.06,0,3.774,4.211,3.774,8.155V281.8" transform="translate(-193.848 -74.491)" fill="#d6ddea"/>
    <path id="Path_71820" data-name="Path 71820" d="M211.86,291.419l-6.217-172.786c0-3.935,1.669-6.638,3.73-6.638h3.73c2.061,0,3.731,2.7,3.731,6.638l6.216,173.022" transform="translate(-17.821 -87.765)" fill="#d6ddea"/>
    <path id="Path_71821" data-name="Path 71821" d="M208.349,14.174,203.734,15.7s-.934-1.164-1.547-.962L188.9,19.13c-.612.2-.666,1.7-.666,1.7l-4.614,1.526c-.511.168-.638,1.151-.428,1.788l.152.463c.209.638,1.082,1.9,1.592,1.734l4.614-1.525s.935,1.164,1.546.961l13.292-4.392c.61-.2.666-1.694.666-1.694l4.612-1.526c.512-.168.457-1.707.247-2.343l-.152-.464c-.209-.636-.9-1.35-1.409-1.18Z" transform="translate(0 -10.443)" fill="#d6ddea"/>
    <path id="Path_71822" data-name="Path 71822" d="M459.308,9.735,454.732,8.1s-.021-1.493-.629-1.71L440.922,1.671c-.606-.216-1.567.927-1.567.927L434.78.961c-.506-.181-1.212.515-1.439,1.146l-.165.46c-.228.632-.319,2.168.188,2.347l4.577,1.637s.021,1.493.628,1.709l13.181,4.717c.606.216,1.569-.926,1.569-.926l4.574,1.636c.507.182,1.411-1.064,1.636-1.694l.166-.461c.223-.631.119-1.618-.387-1.8Z" transform="translate(-197.478)" fill="#d6ddea"/>
  </g>
</svg>
