<svg xmlns="http://www.w3.org/2000/svg" width="178.032" height="207.127" viewBox="0 0 178.032 207.127">
  <g id="noun-batsman-2005531" opacity="0.4">
    <path id="Path_71772" data-name="Path 71772" d="M204.579,437.895h0l1.269-1.269h.423l.423-.844.843-1.69.423-.844,1.269-3.8h.423v-2.534h.423v-2.534h.423V423.11h.423v-1.267h.423v-2.112l-.846-.846c.423.423.844.423,1.267.844v.423l.846.846v2.956h-.423v1.267h-.423v2.534h-.423v2.534l-1.269,3.8-1.269,2.533h-.423l-.423.844v.423l-.423.423a13.566,13.566,0,0,0-2.956-.42h0Z" transform="translate(-68.639 -262.876)" fill="#d6ddea"/>
    <path id="Path_71773" data-name="Path 71773" d="M216.847,408.8h2.113v.423l1.269,1.269v2.956h-.423v1.267h-.423v4.223l-.846,2.534-1.692,3.377h-.423l-1.692,1.692h-.423a11.79,11.79,0,0,1-5.07-9.718c-4.22-2.531,1.272-8.023,7.609-8.023Z" transform="translate(-77.528 -256.595)" fill="#d6ddea"/>
    <path id="Path_71774" data-name="Path 71774" d="M186.481,439.706l.844-.423v-.846h.423l.844-.423v-.846l1.267-1.267v-.423l.844-.423v-.423l.844-.844v-.846l.844-.844v-.423l.844-.844v-.423l-.423-.423.844-.844v-.423l.423-.844v-.423l.423-.844v-.846l.423-.844v-.423l-.841-.418v-2.96a10.659,10.659,0,0,1,2.534,7.182,11.428,11.428,0,0,1-10.139,11.409Z" transform="translate(-45.894 -264.265)" fill="#d6ddea"/>
    <path id="Path_71775" data-name="Path 71775" d="M201.047,433.708h.844c.423-.423.844-.844,1.267-.844.423-.423,1.69-2.534,2.534-3.8.423-.844,1.267-2.113,1.69-2.957,0-.423.423-.844.844-1.69a8.743,8.743,0,0,0,.844-2.534,23.915,23.915,0,0,0,1.267-6.338v-2.957l-.423-.423a6.664,6.664,0,0,1,0,2.957c-.423,2.113-.844,5.07-1.267,6.338a6,6,0,0,0-.844,2.534c-.423.844-.423,1.69-.844,1.69,0,.423-.844,1.267-1.69,2.534s-2.113,3.38-2.534,3.8a3.3,3.3,0,0,1-1.689,1.69Z" transform="translate(-65.107 -258.69)" fill="#d6ddea"/>
    <path id="Path_71776" data-name="Path 71776" d="M339.92,486.267l10.562-8.028L364,494.716s-4.224,2.534-4.647,2.957c-.423,0-19.011-1.267-19.011-1.267V486.267Z" transform="translate(-271.155 -299.841)" fill="#d6ddea"/>
    <path id="Path_71777" data-name="Path 71777" d="M529.394,434.713c.844-5.07-.844-8.027-1.267-8.449,0-.423-.844-9.718,5.915-10.985,5.07-.844,10.562,2.113,13.942,5.07a3.169,3.169,0,0,1,0,5.07l-4.647,3.38a2.325,2.325,0,0,0-1.267,2.113c-1.267,5.492-1.267,8.028.423,11.406.423.844.844,1.267.844,2.113a2.751,2.751,0,0,1-.844,3.8,8.18,8.18,0,0,0-2.113,3.8c-.423,4.224.423,12.675-6.76,11.829,0,0-3.8.423-5.915-6.76-2.112-8.026.846-17.321,1.69-22.391Z" transform="translate(-526.958 -260.54)" fill="#d6ddea"/>
    <path id="Path_71778" data-name="Path 71778" d="M557.946,455.8c2.113,7.182,5.915,6.76,5.915,6.76H566.4c-1.267-.423-3.38-1.69-5.07-6.76-2.113-7.182.844-16.477,1.69-21.968.844-5.07-.844-8.028-1.267-8.449,0-.423-.844-9.718,5.915-10.985h-3.379c-6.76,1.267-5.915,10.562-5.915,10.985a13.881,13.881,0,0,1,1.267,8.449c-.846,5.492-3.8,14.786-1.69,21.968Z" transform="translate(-557.2 -260.085)" fill="#d6ddea"/>
    <path id="Path_71779" data-name="Path 71779" d="M383.223,412.388s21.547,2.534,26.616,2.113c0,0,.844-8.028,3.8-11.829l4.647-5.07,23.237,32.109s1.267,5.915-3.38,9.295-40.136-3.8-40.136-3.8l-21.547-5.915v-8.872c0-.844,2.957-6.338,2.957-6.338Z" transform="translate(-362.621 -249.621)" fill="#d6ddea"/>
    <path id="Path_71780" data-name="Path 71780" d="M386.321,490.226c11.406,0,22.814-4.224,23.237-4.647l.844-.423.423-.423c4.647-4.224,6.76-8.872,5.915-13.1-1.267-6.76-8.872-9.718-9.718-9.718L402.8,469.1c1.69,1.69,2.957,3.8,2.534,4.647a5.037,5.037,0,0,1-2.113.844c-.844,0-1.267.423-2.113.423-5.07,0-9.718-5.492-11.406-8.028a9.406,9.406,0,0,0-7.182-3.8c-1.69,0-5.492-.423-13.519-2.957a186.088,186.088,0,0,0-37.6-8.028c-3.38-.423-5.492-.844-7.182-.844s-3.8,0-5.492,2.113-1.69,4.224-1.69,6.76V461.5c.423,7.182,6.76,11.406,10.562,12.675l.844.423h1.267a11.683,11.683,0,0,1,3.8-.423c8.449,0,18.59,4.647,27.885,8.872,5.492,2.534,10.562,5.07,15.209,6.338a69.314,69.314,0,0,0,9.718.844Z" transform="translate(-315.444 -283.1)" fill="#d6ddea"/>
    <path id="Path_71781" data-name="Path 71781" d="M415.281,489.755s-17.322,6.76-30,3.38-32.53-18.167-48.585-14.786c0,0-7.182-2.534-7.6-8.449-.423-6.338-1.267-6.338,9.295-5.07a176.228,176.228,0,0,1,36.756,8.027c8.027,2.534,12.252,3.38,14.364,3.38a4.432,4.432,0,0,1,3.8,2.113c2.957,3.8,9.718,11.406,17.744,9.295,11.406-2.957,1.267-12.675,1.267-12.675s14.788,4.223,2.959,14.785Z" transform="translate(-322.857 -291.077)" fill="#d6ddea"/>
    <path id="Path_71782" data-name="Path 71782" d="M304.69,296.8l.423,5.492-6.338,1.267-2.536-5.492Z" transform="translate(-195.788 -186.844)" fill="#d6ddea"/>
    <path id="Path_71783" data-name="Path 71783" d="M354.352,113.12l-2.113,8.449.423,10.562,7.6-3.8,9.295-5.493Z" transform="translate(-281.362 -72.45)" fill="#d6ddea"/>
    <path id="Path_71784" data-name="Path 71784" d="M297.736,302.017s-10.562-2.957-15.209-6.338l-4.647,4.224v4.647s16.054,5.492,19.434,8.449c2.957,2.959.423-10.983.423-10.983Z" transform="translate(-182.497 -186.145)" fill="#d6ddea"/>
    <path id="Path_71785" data-name="Path 71785" d="M115.783,302.4h.844c4.647,2.113,39.291,19.434,54.923,29.152a2.809,2.809,0,0,1,1.69,2.113c1.267,2.534,2.112,8.026-1.267,15.209a4.31,4.31,0,0,1-3.38,2.113c-.844,0-1.267-.423-2.113-.844l-51.12-40.136-1.267-6.76Z" transform="translate(3.68 -190.331)" fill="#d6ddea"/>
    <path id="Path_71786" data-name="Path 71786" d="M249.8,481.6l12.675,2.113,6.759,5.913s12.252,8.449,8.449,11.829-19.434,5.915-25.771,3.8q-1.266-.634-1.267-1.267l-3.38-5.915Z" transform="translate(-150.613 -301.934)" fill="#d6ddea"/>
    <path id="Path_71787" data-name="Path 71787" d="M274.83,484.028s12.252,8.449,8.449,11.829c-4.224,3.38-21.124,6.338-26.616,3.38l-3.8-7.182L255.818,476l12.675,2.113Z" transform="translate(-158.324 -298.448)" fill="#d6ddea"/>
    <path id="Path_71788" data-name="Path 71788" d="M333,200.988s-9.295,3.8-15.632-2.534c-6.338-5.915-10.139-9.718-11.829-14.786-1.69-4.647-7.182-16.9-8.028-24.5-.844-7.182-6.338-7.182-2.113-11.829s9.295-7.182,14.786-4.647c0,0-4.224-.423,9.295-30.842,0,0,1.69-13.519,5.915-21.547s6.76-12.675,14.364-13.1a46.873,46.873,0,0,1,15.211,2.112l1.267,15.209-1.267,4.647v8.872l5.07-3.8a3.837,3.837,0,0,1,2.957-1.267l5.492-1.69,13.1-5.915s9.295,16.054,10.139,20.7,2.534,8.028,0,13.1-5.07,10.562-3.8,14.364l1.267,4.224s-12.675-5.07-17.744-.423c0,0,2.113,24.081.423,26.194a20.617,20.617,0,0,1-3.8,4.224l-.423,30.419Z" transform="translate(-282.82 -50.051)" fill="#d6ddea"/>
    <path id="Path_71789" data-name="Path 71789" d="M354.154,175.838a25.648,25.648,0,0,1,9.718,9.718c3.8,6.76,8.449,13.519,11.829,16.477l-10.562,4.224a2.6,2.6,0,0,1-2.957-.423c-2.113-1.69-6.338-4.647-8.449-6.76-2.957-2.534-14.364-19.857-14.786-21.124a5.971,5.971,0,0,0-1.267-2.113,45.978,45.978,0,0,0,16.475,0Z" transform="translate(-282.009 -111.509)" fill="#d6ddea"/>
    <path id="Path_71790" data-name="Path 71790" d="M310.733,256.93a11.121,11.121,0,0,1,2.957,7.182v6.338l-9.718,2.113L298.48,256.93c.423,0-.423-5.493,12.252,0Z" transform="translate(-205.211 -160.493)" fill="#d6ddea"/>
    <path id="Path_71791" data-name="Path 71791" d="M287.948,300.7s-4.224.423-6.76,2.534c-2.957,1.69-4.647.423-4.224-2.534s4.224-5.915,5.492-6.338c.844-.423,2.957.423,3.8.423a1.47,1.47,0,0,1,.844.423,4.707,4.707,0,0,1,.847,5.492Z" transform="translate(-171.865 -185.252)" fill="#d6ddea"/>
    <path id="Path_71792" data-name="Path 71792" d="M125.5,304.64l56.19,30.419a5.827,5.827,0,0,1,1.267,1.69,19.181,19.181,0,0,1-3.38,14.364c-.423.844-1.267.844-2.113.423-7.6-3.8-46.9-24.926-54.5-28.729L121.7,321.54a16.728,16.728,0,0,1,3.8-16.9Z" transform="translate(-7.729 -191.726)" fill="#d6ddea"/>
    <path id="Path_71793" data-name="Path 71793" d="M337.458,369.412a8.407,8.407,0,0,0,6.76-2.957c2.113-2.113,1.69-5.07,1.267-7.182a14.281,14.281,0,0,1,.423-7.182c.423-.844.423-.844.844-.844,2.113,0,4.647,1.69,5.492,2.113a6.354,6.354,0,0,0,4.647,1.69,6.116,6.116,0,0,0,2.957-.844,6.021,6.021,0,0,0,2.534-5.07c-.844-8.449-13.1-16.054-18.167-18.59-3.38-7.6-15.632-24.926-19.857-30.842-2.113-2.957-20.7-31.263-30.842-38.023a16.436,16.436,0,0,0-9.718-2.957c-7.182,0-13.942,4.647-20.7,13.519-8.449,10.985-.844,21.968,3.38,27.884,4.647,6.76,16.054,15.632,19.011,17.744,10.562,18.167,25.348,28.306,31.686,32.53a24.706,24.706,0,0,1,2.534,1.69c2.113,2.957,9.295,11.829,10.562,13.519a8.3,8.3,0,0,0,7.185,3.8Z" transform="translate(-239.119 -163.13)" fill="#d6ddea"/>
    <path id="Path_71794" data-name="Path 71794" d="M273.379,283.991c5.915-8.027,14.786-16.054,24.5-9.295,9.718,6.338,29.573,36.756,29.573,36.756s18.59,25.771,19.857,31.263c0,0,16.9,8.027,17.322,15.632a1.551,1.551,0,0,1-.423,1.267c-.423.423-1.267.423-2.534-.423-2.113-1.69-10.562-6.76-13.1,0s.423,10.985-1.267,13.1-5.915,1.69-7.182,0-8.872-10.985-10.562-13.1c-1.267-2.113-21.124-11.829-34.643-34.643,0,0-13.942-10.139-18.59-17.322-4.649-7.6-8.873-15.208-2.959-23.236Z" transform="translate(-245.594 -171.499)" fill="#d6ddea"/>
    <path id="Path_71795" data-name="Path 71795" d="M294.029,300.336s-.844-2.113-2.534-.844-4.647,1.267-4.647,6.76a28.2,28.2,0,0,0,2.113,10.562s1.69,2.113,2.957.844c0,0,4.224,2.957,5.492,1.69,0,0,2.534,2.957,5.915,1.69,3.8-.423,1.69-12.252,1.69-12.252s-.844-2.957-3.38-2.534c0,0,1.69-4.647-2.534-4.224,0,0-1.269-3.8-5.07-1.692Z" transform="translate(-192.733 -188.268)" fill="#d6ddea"/>
    <path id="Path_71796" data-name="Path 71796" d="M306.147,337.18a.414.414,0,0,0,.423-.423s-.423-5.915.423-8.872c0-.423,0-.423-.423-.844-.423,0-.423,0-.844.423-.844,3.38-.423,8.872-.423,9.295.423.421.423.421.844.421Z" transform="translate(-201.049 -205.677)" fill="#d6ddea"/>
    <path id="Path_71797" data-name="Path 71797" d="M320.707,332.7a.414.414,0,0,0,.423-.423s-.423-5.915.423-8.872c0-.423,0-.423-.423-.844-.423,0-.423,0-.844.423-.844,3.38-.423,8.872-.423,9.295.421.421.421.421.844.421Z" transform="translate(-221.101 -202.887)" fill="#d6ddea"/>
    <path id="Path_71798" data-name="Path 71798" d="M318.517,251.059a4.143,4.143,0,0,0,.423-2.957l-.844-.423s1.267-7.6,11.406-4.647l1.69,2.113s3.8-.844,4.647,2.534,2.534,9.718,1.69,13.1c-.844,2.534-2.957,9.718-3.8,12.675a2.336,2.336,0,0,1-3.38,1.267s-2.534.844-3.8-.844a3.326,3.326,0,0,1-3.38-1.69c-1.69-2.113-3.8-2.534-4.647-6.338-.847-4.224-.424-13.1,0-14.786Z" transform="translate(-236.654 -152.932)" fill="#d6ddea"/>
    <path id="Path_71799" data-name="Path 71799" d="M386.961,470.4v1.267l37.178,8.872,31.686,5.915-1.267-1.267-30.419-5.492Z" transform="translate(-380.723 -294.959)" fill="#d6ddea"/>
    <path id="Path_71800" data-name="Path 71800" d="M371.278,482.72c0,.423.423.844.423,1.267,6.338,1.69,23.659,5.915,41.826,10.139,11.829,2.957,20.28,3.8,25.771,3.8,2.957,0,5.07-.423,6.338-.423-.423-.423-1.267-.423-1.69-.844-4.647.423-14.364.423-30-3.38-19.012-4.646-36.756-8.871-42.671-10.561Z" transform="translate(-364.617 -302.632)" fill="#d6ddea"/>
    <path id="Path_71801" data-name="Path 71801" d="M391.258,522.766h1.267a1.551,1.551,0,0,0,1.267-.423c-1.267.844-7.6,4.647-18.59,4.647-5.07,0-10.985-.844-18.59-2.534-1.69-.844-3.38-1.69-5.492-2.534,24.083,7.182,36.756,2.534,40.136.844Z" transform="translate(-305.171 -327.046)" fill="#d6ddea"/>
    <path id="Path_71802" data-name="Path 71802" d="M392.285,102.273c0-2.534,5.07-12.675,5.07-12.675l.844,12.675-1.267,8.449a18.782,18.782,0,0,0-.844-5.492c-.844-3.8-4.647,0-4.647,0s.423-.421.844-2.957Z" transform="translate(-324.787 -57.801)" fill="#d6ddea"/>
    <path id="Path_71803" data-name="Path 71803" d="M338.8,140.3s3.38,1.267,2.113,4.224l10.561-6.759s-9.716.844-12.674,2.534Z" transform="translate(-258.208 -87.796)" fill="#d6ddea"/>
    <path id="Path_71804" data-name="Path 71804" d="M312.775,94.73c.844,1.69,12.252,8.872,12.252,8.872a25.5,25.5,0,0,1,8.027-1.69c3.8,0,5.492-5.492,6.338-7.6.423-1.69,2.113-3.38,3.38-5.07a64.989,64.989,0,0,0-8.028-.844c-.423,0-7.6,1.267-12.252-5.07l-10.985-3.8c-1.69,4.647,0,13.519,1.267,15.209Z" transform="translate(-238.94 -51.526)" fill="#d6ddea"/>
    <path id="Path_71805" data-name="Path 71805" d="M292.768,26.541c0,.844.423,1.267,1.267,1.69l6.76,2.113,6.338-.844a75.545,75.545,0,0,1,9.295-.847c8.449,0,13.1,1.69,14.786,2.534.844-5.07,1.267-14.364-5.492-19.011A29.186,29.186,0,0,0,317.7,7.951a2.676,2.676,0,0,0-2.113-2.534c-1.267-.423-2.534.423-2.534,1.267A17.749,17.749,0,0,0,296.994,12.6s-3.8,7.182-4.226,13.942Z" transform="translate(-221.046 -5.304)" fill="#d6ddea"/>
    <path id="Path_71806" data-name="Path 71806" d="M281.677,76.3s1.69,4.224,8.027,4.224,20.28,2.957,20.28,2.113c0-1.267-5.492-4.224-5.492-4.224S298.153,74.191,281.677,76.3Z" transform="translate(-195.167 -49.153)" fill="#d6ddea"/>
    <path id="Path_71807" data-name="Path 71807" d="M335.861,306.387a.414.414,0,0,0,.423-.423s0-6.338.423-10.985c0-.423,0-.423-.423-.423s-.423,0-.423.423c-.423,4.647-.423,10.985-.423,10.985A.414.414,0,0,0,335.861,306.387Z" transform="translate(-242.169 -185.447)" fill="#d6ddea"/>
    <path id="Path_71808" data-name="Path 71808" d="M345,304.147a.414.414,0,0,0,.423-.423s0-6.338.423-10.985c0-.423,0-.423-.423-.423s-.423,0-.423.423c-.423,4.647-.423,10.985-.423,11.406-.421,0,0,0,.423,0Z" transform="translate(-254.683 -184.052)" fill="#d6ddea"/>
    <path id="Path_71809" data-name="Path 71809" d="M356.021,297.428a.414.414,0,0,0,.423-.423s0-6.338.423-10.985c0-.423,0-.423-.423-.423s-.423,0-.423.423c-.423,4.647-.423,10.985-.423,11.406,0,0,0,0,.423,0Z" transform="translate(-269.934 -179.866)" fill="#d6ddea"/>
    <path id="Path_71810" data-name="Path 71810" d="M396.086,343.934a5.862,5.862,0,0,0,5.07-2.957c1.69-3.8,8.872-16.9,22.814-21.968a5.159,5.159,0,0,0,3.38-3.8,5.867,5.867,0,0,0-.844-4.647l-2.957-3.8a5.2,5.2,0,0,0-4.224-2.113h-1.267c-4.647.844-20.7,5.915-30,28.729a5.232,5.232,0,0,0,1.267,5.915l2.957,2.957a4.584,4.584,0,0,0,3.8,1.689Z" transform="translate(-352.669 -191.729)" fill="#d6ddea"/>
    <path id="Path_71811" data-name="Path 71811" d="M381.1,361a6.443,6.443,0,0,0,5.07-2.957c1.69-3.8,8.449-16.477,22.391-21.547a5.371,5.371,0,0,0,3.38-3.38,5.867,5.867,0,0,0-.844-4.647l-2.957-3.8a5.2,5.2,0,0,0-4.224-2.113h-1.267c-4.647.844-19.857,5.915-29.152,28.306a5.232,5.232,0,0,0,1.267,5.915l2.957,2.957c.421.846,1.689,1.269,3.379,1.269Z" transform="translate(-331.773 -202.886)" fill="#d6ddea"/>
    <path id="Path_71812" data-name="Path 71812" d="M385.1,358.411c8.449-20.7,22.814-24.926,26.194-25.771a1.551,1.551,0,0,1,1.267.423l2.957,3.8c.423.423.423,1.69-.423,1.69-14.786,5.492-22.391,19.011-24.5,23.659a1.046,1.046,0,0,1-1.69.423l-2.957-2.957c-.844,0-.844-.423-.844-1.267Z" transform="translate(-339.997 -209.164)" fill="#d6ddea"/>
    <path id="Path_71813" data-name="Path 71813" d="M427.633,483.142c0-.423.423-.423.844-.423l3.38.844c.423,0,.423.423.423.844-.423,2.113-2.113,12.252,5.07,19.434.423.423,0,1.267-.423.844l-4.647-1.267h-.423c-1.267-1.266-7.182-7.6-4.224-20.277Z" transform="translate(-377.456 -302.631)" fill="#d6ddea"/>
    <path id="Path_71814" data-name="Path 71814" d="M449,478.662c0-.423.423-.423.844-.423l2.957,1.269c.423,0,.423.423.423.844-.844,2.113-2.534,10.985,2.534,17.744.423.423,0,1.267-.423.844l-4.647-1.69h-.423c-1.266-1.266-5.913-6.336-1.266-18.588Z" transform="translate(-403.47 -299.841)" fill="#d6ddea"/>
    <path id="Path_71815" data-name="Path 71815" d="M398.544,341.337c8.872-21.124,23.659-25.771,27.039-26.616a1.551,1.551,0,0,1,1.267.423l2.957,3.8c.423.844.423,1.69-.423,1.69-15.209,5.492-23.237,19.434-25.348,24.5-.423.844-1.267.844-2.113.423l-2.957-2.957a1.56,1.56,0,0,1-.421-1.269Z" transform="translate(-359.353 -198.005)" fill="#d6ddea"/>
  </g>
</svg>
