<svg xmlns="http://www.w3.org/2000/svg" width="142" height="45" viewBox="0 0 142 45">
  <g id="HSR_Layout_6th_Cro_" data-name="HSR Layout, 6th Cro…" transform="translate(30.88 18.38)" fill="#fff">
    <path d="M 77.1575927734375 24.61999893188477 C 72.46357727050781 24.61999893188477 68.61563110351562 23.14861679077148 65.72062683105469 20.24670791625977 C 62.82697296142578 17.34612655639648 61.35975646972656 13.66107177734375 61.35975646972656 9.293944358825684 C 61.35975646972656 4.968090057373047 62.80528259277344 1.296344399452209 65.65617370605469 -1.619310140609741 C 68.51927947998047 -4.54743766784668 72.219482421875 -6.032110214233398 76.65400695800781 -6.032110214233398 C 80.90412139892578 -6.032110214233398 84.46982574462891 -4.529001235961914 87.25212097167969 -1.564510107040405 C 87.72587585449219 -1.059733271598816 88.15949249267578 -0.533262312412262 88.55253601074219 0.0140580078586936 L 88.55253601074219 -3.325437545776367 L 88.55253601074219 -5.325437545776367 L 90.55253601074219 -5.325437545776367 L 92.93360900878906 -5.325437545776367 L 92.93360900878906 -8.42365550994873 L 92.93360900878906 -9.907382965087891 L 94.35355377197266 -10.33769226074219 L 100.849609375 -12.30630970001221 L 103.4296646118164 -13.08818244934082 L 103.4296646118164 -10.39227390289307 L 103.4296646118164 -5.325437545776367 L 107.1200103759766 -5.325437545776367 L 109.1200103759766 -5.325437545776367 L 109.1200103759766 -3.325437545776367 L 109.1200103759766 2.933780670166016 L 109.1200103759766 4.933780670166016 L 107.1200103759766 4.933780670166016 L 103.4296646118164 4.933780670166016 L 103.4296646118164 13.43309020996094 C 103.4296646118164 13.6980504989624 103.4615859985352 13.84321880340576 103.4811325073242 13.9072732925415 C 103.5623474121094 13.948410987854 103.7607116699219 14.01481437683105 104.1179733276367 14.03630828857422 C 104.4361190795898 14.05543518066406 104.7961044311523 14.06512641906738 105.1879043579102 14.06512641906738 C 105.7275161743164 14.06512641906738 106.3411712646484 14.04670810699463 107.0118255615234 14.01038074493408 L 109.1200103759766 13.89618110656738 L 109.1200103759766 16.00745391845703 L 109.1200103759766 21.91330718994141 L 109.1200103759766 23.69994354248047 L 107.3446807861328 23.90065383911133 C 106.0584487915039 24.04605293273926 104.8526840209961 24.11979866027832 103.7608795166016 24.11981773376465 C 100.5691909790039 24.11985397338867 98.19179534912109 23.51227188110352 96.49286651611328 22.26238059997559 C 94.13111877441406 20.52481651306152 92.93360900878906 17.5542163848877 92.93360900878906 13.43309020996094 L 92.93360900878906 4.933780670166016 L 90.8572998046875 4.933780670166016 C 91.21475219726562 6.303751945495605 91.39434051513672 7.758614063262939 91.39434051513672 9.293944358825684 C 91.39434051513672 10.24858093261719 91.2991943359375 11.26669025421143 91.11155700683594 12.32001686096191 L 90.81775665283203 13.96925354003906 L 89.14255523681641 13.96925354003906 L 86.51117706298828 13.96925354003906 L 89.13665008544922 15.48758029937744 L 91.01162719726562 16.57188987731934 L 89.78163146972656 18.35469055175781 C 88.34897613525391 20.43116188049316 86.54193878173828 22.01570892333984 84.41066741943359 23.06428909301758 C 82.3125 24.09658050537109 79.87220764160156 24.61999893188477 77.1575927734375 24.61999893188477 Z M 73.87173461914062 13.96925354003906 C 74.63255310058594 14.42057514190674 75.70965576171875 14.71412658691406 77.25830078125 14.71412658691406 C 78.49077606201172 14.71412658691406 79.4703369140625 14.47363185882568 80.25163269042969 13.96925354003906 L 73.87173461914062 13.96925354003906 Z M 73.33544921875 4.921489715576172 L 79.6998291015625 4.921489715576172 C 79.6143798828125 4.843862533569336 79.52500152587891 4.771176338195801 79.43166351318359 4.703380584716797 C 78.61634063720703 4.111162662506104 77.70775604248047 3.823271751403809 76.65400695800781 3.823271751403809 C 75.35539245605469 3.823271751403809 74.34157562255859 4.122144222259521 73.55462646484375 4.736962795257568 C 73.47901153564453 4.796038150787354 73.40596771240234 4.857523441314697 73.33544921875 4.921489715576172 Z M 26.14593696594238 24.61999893188477 C 21.81690216064453 24.61999893188477 18.14530181884766 23.13005256652832 15.23308277130127 20.19154357910156 C 12.32581043243408 17.25799942016602 10.85168266296387 13.59152603149414 10.85168266296387 9.293944358825684 C 10.85168266296387 4.996362686157227 12.32581043243408 1.329889893531799 15.23308277130127 -1.603655576705933 C 18.14530181884766 -4.54216480255127 21.81690216064453 -6.032110214233398 26.14593696594238 -6.032110214233398 C 28.94473838806152 -6.032110214233398 31.53775596618652 -5.345692157745361 33.85295486450195 -3.991910219192505 C 35.77291870117188 -2.869255065917969 37.33050537109375 -1.407729864120483 38.49768447875977 0.3635165989398956 L 38.49768447875977 -13.42092800140381 L 38.49768447875977 -15.42092800140381 L 40.49768447875977 -15.42092800140381 L 46.99373626708984 -15.42092800140381 L 48.99373626708984 -15.42092800140381 L 48.99373626708984 -13.42092800140381 L 48.99373626708984 1.988819599151611 L 54.07577514648438 -4.552474021911621 L 54.67630004882812 -5.325437545776367 L 55.65513610839844 -5.325437545776367 L 63.41011810302734 -5.325437545776367 L 67.60948181152344 -5.325437545776367 L 64.96295928955078 -2.065001010894775 L 55.86793518066406 9.13979434967041 L 65.26166534423828 20.64865303039551 L 67.92633819580078 23.91330718994141 L 63.71226501464844 23.91330718994141 L 56.15871810913086 23.91330718994141 L 55.1968994140625 23.91330718994141 L 54.59640884399414 23.1619815826416 L 48.99373626708984 16.15202140808105 L 48.99373626708984 21.91330718994141 L 48.99373626708984 23.91330718994141 L 46.99373626708984 23.91330718994141 L 40.49768447875977 23.91330718994141 L 38.49768447875977 23.91330718994141 L 38.49768447875977 21.91330718994141 L 38.49768447875977 18.2740650177002 C 37.29618835449219 19.99999618530273 35.742431640625 21.43398857116699 33.86362838745117 22.54827117919922 C 31.54575538635254 23.9229621887207 28.94915580749512 24.61999893188477 26.14593696594238 24.61999893188477 Z M 31.01844596862793 10.0251989364624 L 32.88070297241211 11.09190845489502 L 38.49768447875977 14.30929756164551 L 38.49768447875977 4.169436931610107 L 38.43833923339844 4.204271793365479 L 32.84872055053711 7.485308170318604 L 30.97810173034668 8.583344459533691 L 30.03515625 6.62996244430542 C 29.70364761352539 5.943217277526855 29.21022796630859 5.412817001342773 28.52672004699707 5.008471488952637 C 27.8101749420166 4.584580898284912 27.01493835449219 4.378526210784912 26.09557342529297 4.378526210784912 C 24.69379234313965 4.378526210784912 23.57864761352539 4.819016933441162 22.68641090393066 5.725144386291504 C 21.78562927246094 6.639980792999268 21.34773826599121 7.807344436645508 21.34773826599121 9.293944358825684 C 21.34773826599121 10.74658107757568 21.78561019897461 11.89743518829346 22.68641090393066 12.81225395202637 C 23.57864761352539 13.71839904785156 24.69379234313965 14.15888977050781 26.09555625915527 14.1588716506958 C 27.05768394470215 14.15888977050781 27.87631988525391 13.95705318450928 28.59826469421387 13.54181671142578 C 29.27142906188965 13.15465354919434 29.75791931152344 12.6365442276001 30.08548355102539 11.95792579650879 L 31.01844596862793 10.0251989364624 Z M 10.67204666137695 23.91330718994141 L 8.672046661376953 23.91330718994141 L 2.175992250442505 23.91330718994141 L 0.1759921908378601 23.91330718994141 L 0.1759921908378601 21.91330718994141 L 0.1759921908378601 -3.325437545776367 L 0.1759921908378601 -4.75789213180542 L -0.9461351037025452 -4.75789213180542 L -8.463607788085938 -4.75789213180542 L -8.463607788085938 21.91330718994141 L -8.463607788085938 23.91330718994141 L -10.46360778808594 23.91330718994141 L -17.41287994384766 23.91330718994141 L -19.41287994384766 23.91330718994141 L -19.41287994384766 21.91330718994141 L -19.41287994384766 -4.75789213180542 L -26.87998962402344 -4.75789213180542 L -28.87998962402344 -4.75789213180542 L -28.87998962402344 -6.75789213180542 L -28.87998962402344 -13.42092800140381 L -28.87998962402344 -15.42092800140381 L -26.87998962402344 -15.42092800140381 L -0.9461351037025452 -15.42092800140381 L 1.0538649559021 -15.42092800140381 L 1.0538649559021 -14.44064331054688 C 1.093032598495483 -14.482834815979 1.132816910743713 -14.52460956573486 1.173337697982788 -14.56609153747559 C 2.33251953125 -15.75276470184326 3.793683052062988 -16.38000106811523 5.398846626281738 -16.38000106811523 C 7.036955833435059 -16.38000106811523 8.515519142150879 -15.75276470184326 9.674701690673828 -14.56609153747559 C 10.82133769989014 -13.39227390289307 11.42741012573242 -11.93152809143066 11.42741012573242 -10.34180068969727 C 11.42741012573242 -8.744037628173828 10.81622886657715 -7.286855697631836 9.659919738769531 -6.127764701843262 C 9.354759216308594 -5.821880340576172 9.027755737304688 -5.554079532623291 8.681617736816406 -5.325437545776367 L 10.67204666137695 -5.325437545776367 L 10.67204666137695 -3.325437545776367 L 10.67204666137695 21.91330718994141 L 10.67204666137695 23.91330718994141 Z M 1.0538649559021 -5.325437545776367 L 2.162835836410522 -5.325437545776367 C 1.819084644317627 -5.554079532623291 1.493293523788452 -5.821880340576172 1.188137650489807 -6.127764701843262 C 1.142545819282532 -6.173465251922607 1.097757697105408 -6.219677925109863 1.0538649559021 -6.266295909881592 L 1.0538649559021 -5.325437545776367 Z" stroke="none"/>
    <path d="M 5.398849487304688 -14.38000106811523 C 4.324569702148438 -14.38000106811523 3.392951965332031 -13.97618103027344 2.604026794433594 -13.16854095458984 C 1.815093994140625 -12.36090087890625 1.420631408691406 -11.41866111755371 1.420631408691406 -10.34180068969727 C 1.420631408691406 -9.26494026184082 1.815093994140625 -8.331121444702148 2.604026794433594 -7.540301322937012 C 3.392951965332031 -6.749481201171875 4.324569702148438 -6.354081153869629 5.398849487304688 -6.354081153869629 C 6.506690979003906 -6.354081153869629 7.455093383789062 -6.749481201171875 8.244010925292969 -7.540301322937012 C 9.032951354980469 -8.331121444702148 9.427413940429688 -9.26494026184082 9.427413940429688 -10.34180068969727 C 9.427413940429688 -11.41866111755371 9.032951354980469 -12.36090087890625 8.244010925292969 -13.16854095458984 C 7.455093383789062 -13.97618103027344 6.506690979003906 -14.38000106811523 5.398849487304688 -14.38000106811523 M -26.87998962402344 -13.42094039916992 L -26.87998962402344 -6.757901191711426 L -17.41288757324219 -6.757901191711426 L -17.41288757324219 21.9133186340332 L -10.46360778808594 21.9133186340332 L -10.46360778808594 -6.757901191711426 L -0.9461288452148438 -6.757901191711426 L -0.9461288452148438 -13.42094039916992 L -26.87998962402344 -13.42094039916992 M 40.4976921081543 -13.42094039916992 L 40.4976921081543 21.9133186340332 L 46.99372863769531 21.9133186340332 L 46.99372863769531 10.44623947143555 L 56.15871047973633 21.9133186340332 L 63.71227264404297 21.9133186340332 L 53.28915023803711 9.143299102783203 L 63.41011047363281 -3.325421333312988 L 55.6551513671875 -3.325421333312988 L 46.99372863769531 7.822999000549316 L 46.99372863769531 -13.42094039916992 L 40.4976921081543 -13.42094039916992 M 101.4296493530273 -10.39228057861328 L 94.93359375 -8.423660278320312 L 94.93359375 -3.325421333312988 L 90.55255126953125 -3.325421333312988 L 90.55255126953125 2.933778762817383 L 94.93359375 2.933778762817383 L 94.93359375 13.43309879302979 C 94.93359375 16.89921951293945 95.84843444824219 19.30531883239746 97.67805480957031 20.6513786315918 C 99.5076904296875 21.99744033813477 102.6550140380859 22.4180793762207 107.1200103759766 21.9133186340332 L 107.1200103759766 16.00743865966797 C 105.8778533935547 16.07476043701172 104.8371505737305 16.08316040039062 103.9978713989258 16.03267860412598 C 103.1585693359375 15.98219871520996 102.5207290649414 15.75505828857422 102.0842895507812 15.35123825073242 C 101.6478729248047 14.94741916656494 101.4296493530273 14.30803871154785 101.4296493530273 13.43309879302979 L 101.4296493530273 2.933778762817383 L 107.1200103759766 2.933778762817383 L 107.1200103759766 -3.325421333312988 L 101.4296493530273 -3.325421333312988 L 101.4296493530273 -10.39228057861328 M 26.14593124389648 -4.032120704650879 C 22.35237121582031 -4.032120704650879 19.18827056884766 -2.753340721130371 16.65362930297852 -0.1958208084106445 C 14.11901092529297 2.361699104309082 12.85169219970703 5.524958610534668 12.85169219970703 9.293938636779785 C 12.85169219970703 13.06291961669922 14.11901092529297 16.2261791229248 16.65362930297852 18.78369903564453 C 19.18827056884766 21.34123992919922 22.35237121582031 22.61999893188477 26.14593124389648 22.61999893188477 C 28.59664916992188 22.61999893188477 30.82913208007812 22.02267837524414 32.84341049194336 20.82803916931152 C 34.85768890380859 19.63341903686523 36.41876983642578 18.04337882995605 37.526611328125 16.05791854858398 L 31.88663101196289 12.82735824584961 C 31.38307189941406 13.8705587387085 30.61930847167969 14.68661880493164 29.59539031982422 15.2755184173584 C 28.57147216796875 15.86441898345947 27.40486907958984 16.15887832641602 26.0955696105957 16.15887832641602 C 24.14842987060547 16.15887832641602 22.53701019287109 15.51107883453369 21.26131057739258 14.21549892425537 C 19.98559188842773 12.91989898681641 19.34772872924805 11.27939891815186 19.34772872924805 9.293938636779785 C 19.34772872924805 7.274838924407959 19.98559188842773 5.617498874664307 21.26131057739258 4.321918964385986 C 22.53701019287109 3.026319026947021 24.14842987060547 2.378519058227539 26.0955696105957 2.378519058227539 C 27.37129211425781 2.378519058227539 28.52111053466797 2.681398868560791 29.54502868652344 3.287118911743164 C 30.56895065307617 3.892858982086182 31.33271026611328 4.717319011688232 31.83626937866211 5.760519027709961 L 37.42591094970703 2.47947883605957 C 36.38518905639648 0.4940390586853027 34.85768890380859 -1.087600708007812 32.84341049194336 -2.265400886535645 C 30.82913208007812 -3.443221092224121 28.59664916992188 -4.032120704650879 26.14593124389648 -4.032120704650879 M 76.65400695800781 -4.032120704650879 C 72.75975036621094 -4.032120704650879 69.57044982910156 -2.761760711669922 67.08618927001953 -0.2210607528686523 C 64.60191345214844 2.319638729095459 63.35974884033203 5.491298675537109 63.35974884033203 9.293938636779785 C 63.35974884033203 13.13023948669434 64.61869049072266 16.31031799316406 67.13655090332031 18.83417892456055 C 69.65438842773438 21.35805892944336 72.99472808837891 22.61999893188477 77.1575927734375 22.61999893188477 C 81.99185180664062 22.61999893188477 85.65113067626953 20.81963920593262 88.13540649414062 17.21889877319336 L 82.89829254150391 14.19025897979736 C 81.62257385253906 15.87283897399902 79.74256896972656 16.71413803100586 77.25829315185547 16.71413803100586 C 73.39759063720703 16.71413803100586 71.03080749511719 15.1324987411499 70.15795135498047 11.96923923492432 L 89.14254760742188 11.96923923492432 C 89.31040954589844 11.02699851989746 89.39433288574219 10.13523864746094 89.39433288574219 9.293938636779785 C 89.39433288574219 5.524958610534668 88.19415283203125 2.361699104309082 85.79380798339844 -0.1958208084106445 C 83.39347076416016 -2.753360748291016 80.34687042236328 -4.032120704650879 76.65400695800781 -4.032120704650879 M 82.89829254150391 6.921498775482178 L 70.0572509765625 6.921498775482178 C 70.42652893066406 5.306219100952148 71.18186950683594 4.052699089050293 72.32331085205078 3.160918712615967 C 73.46472930908203 2.269158840179443 74.90830993652344 1.823278903961182 76.65400695800781 1.823278903961182 C 78.13114929199219 1.823278903961182 79.44882965087891 2.243918895721436 80.60703277587891 3.085198879241943 C 81.76525115966797 3.926498889923096 82.52899169921875 5.205258846282959 82.89829254150391 6.921498775482178 M 2.175987243652344 -3.325421333312988 L 2.175987243652344 21.9133186340332 L 8.672050476074219 21.9133186340332 L 8.672050476074219 -3.325421333312988 L 2.175987243652344 -3.325421333312988 M 5.398849487304688 -18.38000106811523 C 7.587928771972656 -18.38000106811523 9.561233520507812 -17.54442024230957 11.10540771484375 -15.96362113952637 C 12.62447357177734 -14.40854072570801 13.42741394042969 -12.46454048156738 13.42741394042969 -10.34180068969727 C 13.42741394042969 -9.139368057250977 13.17045593261719 -7.998125076293945 12.67205047607422 -6.955183982849121 L 12.67205047607422 -1.747078895568848 C 13.02836608886719 -2.182295799255371 13.40872192382812 -2.604063034057617 13.81250762939453 -3.011501312255859 C 15.45831298828125 -4.672161102294922 17.34793090820312 -5.940601348876953 19.42887115478516 -6.781620979309082 C 21.48199081420898 -7.611381530761719 23.74195098876953 -8.032121658325195 26.14593124389648 -8.032121658325195 C 29.30424880981445 -8.032121658325195 32.23693084716797 -7.253681182861328 34.86251068115234 -5.718400955200195 C 35.43595123291016 -5.383094787597656 35.98122406005859 -5.021008491516113 36.4976921081543 -4.63278865814209 L 36.4976921081543 -17.42094039916992 L 50.99372863769531 -17.42094039916992 L 50.99372863769531 -3.845322608947754 L 53.69749069213867 -7.325421333312988 L 71.41462707519531 -7.325421333312988 C 73.05065155029297 -7.794893264770508 74.80621337890625 -8.032121658325195 76.65400695800781 -8.032121658325195 C 79.02626800537109 -8.032121658325195 81.24773406982422 -7.604560852050781 83.2567138671875 -6.761321067810059 C 84.42514038085938 -6.27088737487793 85.52693939208984 -5.63813591003418 86.55255126953125 -4.869775772094727 L 86.55255126953125 -7.325421333312988 L 90.93359375 -7.325421333312988 L 90.93359375 -11.3911018371582 L 105.4296493530273 -15.78412055969238 L 105.4296493530273 -7.325421333312988 L 111.1200103759766 -7.325421333312988 L 111.1200103759766 6.933778762817383 L 105.4296493530273 6.933778762817383 L 105.4296493530273 12.06386089324951 C 105.8735198974609 12.0592679977417 106.3680572509766 12.04231739044189 106.9035949707031 12.01329898834229 L 111.1200103759766 11.78481864929199 L 111.1200103759766 25.4865779876709 L 107.5693664550781 25.88799858093262 C 106.2087707519531 26.04181861877441 104.9274139404297 26.11981964111328 103.7608947753906 26.11981964111328 C 100.1274108886719 26.11981964111328 97.36232757568359 25.3849983215332 95.30764770507812 23.87335968017578 C 93.76702880859375 22.73993873596191 92.61411285400391 21.1873779296875 91.88085174560547 19.25881958007812 C 91.84601593017578 19.16720199584961 91.81214141845703 19.07465934753418 91.77921295166016 18.98116683959961 L 91.42783355712891 19.49045944213867 C 89.79887390136719 21.85147857666016 87.73503112792969 23.65765762329102 85.29359436035156 24.85883903503418 C 82.91835021972656 26.02745819091797 80.18100738525391 26.61999893188477 77.1575927734375 26.61999893188477 C 75.18379211425781 26.61999893188477 73.3404541015625 26.38363456726074 71.63376617431641 25.9133186340332 L 54.23506927490234 25.9133186340332 L 50.99372863769531 21.85779190063477 L 50.99372863769531 25.9133186340332 L 36.4976921081543 25.9133186340332 L 36.4976921081543 23.18899154663086 C 35.98585891723633 23.57403564453125 35.44773864746094 23.93404769897461 34.88385009765625 24.26847839355469 C 32.25294876098633 25.82881927490234 29.31307220458984 26.61999893188477 26.14593124389648 26.61999893188477 C 23.74195098876953 26.61999893188477 21.48199081420898 26.19927978515625 19.42887115478516 25.36949920654297 C 17.3479118347168 24.52849960327148 15.45831298828125 23.26004028320312 13.81250762939453 21.59937858581543 C 13.40872192382812 21.19194030761719 13.02836608886719 20.77017402648926 12.67205047607422 20.33495712280273 L 12.67205047607422 25.9133186340332 L -1.824012756347656 25.9133186340332 L -1.824012756347656 -2.757901191711426 L -6.463607788085938 -2.757901191711426 L -6.463607788085938 25.9133186340332 L -21.41288757324219 25.9133186340332 L -21.41288757324219 -2.757901191711426 L -30.87998962402344 -2.757901191711426 L -30.87998962402344 -17.42094039916992 L 1.638900756835938 -17.42094039916992 C 2.779266357421875 -18.05288314819336 4.049934387207031 -18.38000106811523 5.398849487304688 -18.38000106811523 Z M 29.12542724609375 9.346110343933105 L 28.23398971557617 7.499359130859375 C 28.07283020019531 7.165498733520508 27.85583114624023 6.935338973999023 27.50836944580078 6.729798793792725 C 27.103271484375 6.490159034729004 26.65433120727539 6.378519058227539 26.0955696105957 6.378519058227539 C 24.99787139892578 6.378519058227539 24.47665023803711 6.75757884979248 24.11154937744141 7.128378868103027 C 23.75590896606445 7.489559173583984 23.34772872924805 8.06205940246582 23.34772872924805 9.293938636779785 C 23.34772872924805 10.47419929504395 23.73382949829102 11.02545928955078 24.11151123046875 11.40901947021484 C 24.47663116455078 11.77981948852539 24.99787139892578 12.15887928009033 26.0955696105957 12.15887928009033 C 26.69826889038086 12.15887928009033 27.19075012207031 12.04413890838623 27.60113143920898 11.80809879302979 C 27.92702865600586 11.62067890167236 28.13135147094727 11.40545845031738 28.28435134887695 11.08851909637451 L 29.12542724609375 9.346110343933105 Z M 36.4976921081543 10.85883808135986 L 36.4976921081543 7.662527084350586 L 33.74173355102539 9.280235290527344 L 36.4976921081543 10.85883808135986 Z M 59.38319396972656 10.28366088867188 C 59.36758041381836 9.956760406494141 59.35974884033203 9.626681327819824 59.35974884033203 9.293938636779785 C 59.35974884033203 8.843523979187012 59.37412261962891 8.398285865783691 59.40280914306641 7.958414554595947 L 58.44670486450195 9.136307716369629 L 59.38319396972656 10.28366088867188 Z" stroke="none" fill="#ec1377"/>
  </g>
</svg>
