<svg xmlns="http://www.w3.org/2000/svg" xmlns:xlink="http://www.w3.org/1999/xlink" width="54" height="54.618" viewBox="0 0 54 54.618">
  <defs>
    <clipPath id="clip-path">
      <circle id="Ellipse_3" data-name="Ellipse 3" cx="27" cy="27" r="27" transform="translate(0 1)" fill="#e5ebef"/>
    </clipPath>
  </defs>
  <g id="Group_63083" data-name="Group 63083" transform="translate(0 -0.382)">
    <path id="Path_71831" data-name="Path 71831" d="M27,0A27,27,0,1,1,0,27,27,27,0,0,1,27,0Z" transform="translate(0 0.382)" fill="#6359b3"/>
    <g id="Mask_Group_4" data-name="Mask Group 4" transform="translate(0 0)" clip-path="url(#clip-path)">
      <path id="Icon_ionic-ios-person" data-name="Icon ionic-ios-person" d="M37.889,47.389C37.3,44.929,36.82,34.369,34.5,31.977s-7.37-3.1-8.53-3.349a4.391,4.391,0,0,1-1.955-.858c-.325-.371-.13-3.813-.13-3.813a11.306,11.306,0,0,0,.925-1.678,20.775,20.775,0,0,0,.681-2.931s.665,0,.9-1.114c.252-1.214.649-1.686.6-2.591-.049-.889-.56-.866-.56-.866a12.979,12.979,0,0,0,.552-3.967c.073-3.178-2.539-6.31-7.269-6.31-4.795,0-7.35,3.132-7.277,6.31a13.536,13.536,0,0,0,.544,3.967s-.511-.023-.56.866c-.049.9.349,1.377.6,2.591.227,1.114.9,1.114.9,1.114a20.775,20.775,0,0,0,.681,2.931,11.306,11.306,0,0,0,.925,1.678s.195,3.441-.13,3.813a4.391,4.391,0,0,1-1.955.858c-1.16.247-5.965.957-8.289,3.349S2.1,44.929,1.516,47.389a.627.627,0,0,0,.641.75h35.1A.625.625,0,0,0,37.889,47.389Z" transform="translate(7.371 6.862)" fill="#fff"/>
    </g>
  </g>
</svg>
