<svg xmlns="http://www.w3.org/2000/svg" xmlns:xlink="http://www.w3.org/1999/xlink" width="54" height="54" viewBox="0 0 54 54">
  <defs>
    <clipPath id="clip-path">
      <circle id="Ellipse_3" data-name="Ellipse 3" cx="27" cy="27" r="27" fill="#e5ebef"/>
    </clipPath>
    <linearGradient id="linear-gradient" x1="0.084" y1="0.081" x2="0.935" y2="0.939" gradientUnits="objectBoundingBox">
      <stop offset="0" stop-color="#847acb"/>
      <stop offset="1" stop-color="#6359b3"/>
    </linearGradient>
  </defs>
  <g id="Group_62984" data-name="Group 62984" transform="translate(-36 -1376.763)" opacity="0.3">
    <g id="Group_8" data-name="Group 8" transform="translate(-1 1004.763)">
      <g id="Ellipse_4" data-name="Ellipse 4" transform="translate(37 372)" fill="#e6e2ff" stroke="rgba(114,104,189,0.2)" stroke-width="1">
        <circle cx="27" cy="27" r="27" stroke="none"/>
        <circle cx="27" cy="27" r="26.5" fill="none"/>
      </g>
      <g id="Mask_Group_4" data-name="Mask Group 4" transform="translate(37 372)" clip-path="url(#clip-path)">
        <path id="Icon_ionic-ios-person" data-name="Icon ionic-ios-person" d="M37.273,47.274c-.574-2.453-1.051-12.985-3.336-15.37s-7.245-3.093-8.385-3.34a4.287,4.287,0,0,1-1.922-.856c-.319-.37-.128-3.8-.128-3.8a11.322,11.322,0,0,0,.909-1.674,20.975,20.975,0,0,0,.67-2.923s.654,0,.885-1.111a10.619,10.619,0,0,0,.59-2.584c-.048-.887-.55-.864-.55-.864a13.115,13.115,0,0,0,.542-3.957c.072-3.17-2.5-6.294-7.146-6.294-4.714,0-7.226,3.124-7.154,6.294a13.678,13.678,0,0,0,.534,3.957s-.5-.023-.55.864a10.619,10.619,0,0,0,.59,2.584c.223,1.111.885,1.111.885,1.111a20.975,20.975,0,0,0,.67,2.923,11.322,11.322,0,0,0,.909,1.674s.191,3.432-.128,3.8a4.287,4.287,0,0,1-1.922.856c-1.141.247-5.864.954-8.149,3.34s-3,12.918-3.573,15.37a.622.622,0,0,0,.63.748H36.651A.621.621,0,0,0,37.273,47.274Z" transform="translate(7.847 6.461)" fill="url(#linear-gradient)"/>
      </g>
    </g>
  </g>
</svg>
